<svg xmlns="http://www.w3.org/2000/svg"><metadata>This is a custom SVG webfont generated by Font Squirrel. Copyright : Private data generated by Bitstream TrueDoc TM</metadata><defs><font id="VolterGoldfishRegular" horiz-adv-x="1365"><font-face ascent="1638" descent="-410" units-per-em="2048"/><glyph horiz-adv-x="1138"/><glyph horiz-adv-x="1138"/><glyph horiz-adv-x="1138"/><glyph d="M0 455v1138h228v-1138h-228zM0 0v228h228v-228h-228z" horiz-adv-x="455" unicode="!"/><glyph d="M455 1138v455h228v-455h-228zM0 1138v455h228v-455h-228z" horiz-adv-x="910" unicode="&quot;"/><glyph d="M0 455v228h228v455h-228v227h228v228h227v-228h455v228h228v-228h227v-227h-227v-455h227v-228h-227v-227h-228v227h-455v-227h-227v227h-228zM455 683h455v455h-455v-455z" horiz-adv-x="1593" unicode="#"/><glyph d="M1365 229v455h228v-455h-228zM0 0v228h455v455h-227v227h227v455h-227v228h227v227h228v-227h227v227h228v-227h455v-228h-455v-455h227v-227h-227v-455h227v-228h-227v-228h-228v228h-227v-228h-228v228h-455zM683 228h227v455h-227v-455zM683 910h227v455h-227v-455z M0 911v455h228v-455h-228z" horiz-adv-x="1820" unicode="$"/><glyph d="M0 0v228h228v-228h-228zM0 1138v227h228v-227h-228zM228 228v227h227v-227h-227zM228 910v228h227v-228h-227zM228 1365v228h227v-228h-227zM455 455v228h228v-228h-228zM455 1138v227h228v-227h-228zM683 683v227h227v-227h-227zM910 228v227h228v-227h-228zM910 910 v228h228v-228h-228zM1138 0v228h227v-228h-227zM1138 455v228h227v-228h-227zM1138 1138v227h227v-227h-227zM1365 228v227h228v-227h-228zM1365 1365v228h228v-228h-228z" horiz-adv-x="1820" unicode="%"/><glyph d="M0 228v455h228v-455h-228zM228 0v228h682v-228h-682zM228 683v682h227v-455h455v-455h-227v228h-455zM455 1365v228h455v-228h-455zM910 228v227h228v-227h-228zM910 910v455h228v-455h-228zM1138 0v228h227v-228h-227zM1138 455v228h227v-228h-227z" horiz-adv-x="1593" unicode="&amp;"/><glyph d="M0 910v683h228v-683h-228z" horiz-adv-x="455" unicode="'"/><glyph d="M228 1365v228h455v-228h-455zM228 0v228h455v-228h-455zM0 229v1137h228v-1137h-228z" horiz-adv-x="910" unicode="("/><glyph d="M455 229v1137h228v-1137h-228zM1 1365v228h455v-228h-455zM1 0v228h455v-228h-455z" horiz-adv-x="910" unicode=")"/><glyph d="M910 1365v228h228v-228h-228zM228 1138v227h227v455h228v-455h227v-227h-227v-455h-228v455h-227zM910 910v228h228v-228h-228zM0 1365v228h228v-228h-228zM0 910v228h228v-228h-228z" unicode="*"/><glyph d="M0 455v228h455v455h228v-455h455v-228h-455v-455h-228v455h-455z" unicode="+"/><glyph d="M0 0v455h455v-683h-227v228h-228zM0 -454v227h228v-227h-228z" horiz-adv-x="683" unicode=","/><glyph d="M0 455v228h910v-228h-910z" horiz-adv-x="1138" unicode="-"/><glyph d="M0 0v455h455v-455h-455z" horiz-adv-x="683" unicode="."/><glyph d="M0 0v228h228v-228h-228zM228 228v227h227v-227h-227zM455 455v228h228v-228h-228zM683 683v227h227v-227h-227zM910 910v228h228v-228h-228zM1138 1138v227h227v-227h-227zM1365 1365v228h228v-228h-228z" horiz-adv-x="1820" unicode="/"/><glyph d="M683 910v228h227v227h228v-1137h-228v682h-227zM228 1v228h682v-228h-682zM0 228v1137h228v-682h227v-228h-227v-227h-228zM455 683v227h228v-227h-228zM228 1365v228h682v-228h-682z" unicode="0"/><glyph d="M0 1365v228h455v-1593h-227v1365h-228z" horiz-adv-x="683" unicode="1"/><glyph d="M0 0v683h228v-455h910v-228h-1138zM0 1365v228h910v-228h-910zM228 683v227h682v-227h-682zM910 911v455h228v-455h-228z" unicode="2"/><glyph d="M0 1v228h910v-228h-910zM0 1365v228h910v-228h-910zM228 683v227h682v-227h-682zM910 229v455h228v-455h-228zM910 911v455h228v-455h-228z" unicode="3"/><glyph d="M228 910v228h227v-228h-227zM0 455v228h683v455h-228v227h228v228h227v-910h228v-228h-228v-455h-227v455h-683zM0 683h228v227h-228v-227z" unicode="4"/><glyph d="M0 1v228h910v-228h-910zM0 683v910h1138v-228h-910v-455h682v-227h-910zM910 229v455h228v-455h-228z" unicode="5"/><glyph d="M910 229v455h228v-455h-228zM228 1365v228h682v-228h-682zM228 1v228h682v-228h-682zM0 228v1137h228v-455h682v-227h-682v-455h-228z" unicode="6"/><glyph d="M683 684v455h227v-455h-227zM0 1365v228h1138v-455h-228v227h-910zM455 229v455h228v-455h-228zM228 0v228h227v-228h-227z" unicode="7"/><glyph d="M0 228v455h228v-455h-228zM0 910v455h228v-455h-228zM228 0v228h682v-228h-682zM228 683v227h682v-227h-682zM228 1365v228h682v-228h-682zM910 228v455h228v-455h-228zM910 910v455h228v-455h-228z" unicode="8"/><glyph d="M228 683v227h682v455h228v-1137h-228v455h-682zM228 1365v228h682v-228h-682zM0 911v455h228v-455h-228zM228 1v228h682v-228h-682z" unicode="9"/><glyph d="M0 683v455h455v-455h-455zM0 0v455h455v-455h-455z" horiz-adv-x="683" unicode=":"/><glyph d="M0 683v455h455v-455h-455zM0 0v455h455v-683h-227v228h-228zM0 -454v227h228v-227h-228z" horiz-adv-x="683" unicode=";"/><glyph d="M0 683v227h228v-227h-228zM228 455v228h227v-228h-227zM228 910v228h227v-228h-227zM455 228v227h228v-227h-228zM455 1138v227h228v-227h-228zM683 0v228h227v-228h-227zM683 1365v228h227v-228h-227z" horiz-adv-x="1138" unicode="&lt;"/><glyph d="M0 683v227h1138v-227h-1138zM0 228v227h1138v-227h-1138z" unicode="="/><glyph d="M0 0v228h228v-228h-228zM0 1365v228h228v-228h-228zM228 228v227h227v-227h-227zM228 1138v227h227v-227h-227zM455 455v228h228v-228h-228zM455 910v228h228v-228h-228zM683 683v227h227v-227h-227z" horiz-adv-x="1138" unicode="&gt;"/><glyph d="M0 1138v227h228v-227h-228zM228 1365v228h682v-228h-682zM455 0v228h228v-228h-228zM455 455v228h228v-228h-228zM683 683v227h227v-227h-227zM910 910v455h228v-455h-228z" unicode="?"/><glyph d="M455 455v683h683v-455h227v682h228v-910h-1138zM683 683h227v227h-227v-227zM228 1365v228h1137v-228h-1137zM228 0v228h1137v-228h-1137zM0 229v1137h228v-1137h-228z" horiz-adv-x="1820" unicode="@"/><glyph d="M228 1365v228h682v-228h-682zM0 0v1365h228v-455h682v455h228v-1365h-228v683h-682v-683h-228z" unicode="A"/><glyph d="M910 911v455h228v-455h-228zM0 0v1593h910v-228h-682v-455h682v-227h-682v-455h682v-228h-910zM910 229v455h228v-455h-228z" unicode="B"/><glyph d="M910 1138v227h228v-227h-228zM910 228v227h228v-227h-228zM228 1365v228h682v-228h-682zM228 1v228h682v-228h-682zM0 229v1137h228v-1137h-228z" unicode="C"/><glyph d="M910 229v1137h228v-1137h-228zM0 0v1593h910v-228h-682v-1137h682v-228h-910z" unicode="D"/><glyph d="M0 0v1593h1138v-228h-910v-455h682v-227h-682v-455h910v-228h-1138z" unicode="E"/><glyph d="M0 0v1593h1138v-228h-910v-455h682v-227h-682v-683h-228z" unicode="F"/><glyph d="M910 1138v227h228v-227h-228zM455 683v227h683v-682h-228v455h-455zM228 1v228h682v-228h-682zM0 229v1137h228v-1137h-228zM228 1365v228h682v-228h-682z" unicode="G"/><glyph d="M0 0v1593h228v-683h682v683h228v-1593h-228v683h-682v-683h-228z" unicode="H"/><glyph d="M0 0v228h228v1137h-228v228h683v-228h-228v-1137h228v-228h-683z" horiz-adv-x="910" unicode="I"/><glyph d="M910 228v1365h228v-1365h-228zM228 1v228h682v-228h-682zM0 228v227h228v-227h-228z" unicode="J"/><glyph d="M0 0v1593h228v-683h227v-227h-227v-683h-228zM455 455v228h228v-228h-228zM455 910v228h228v-228h-228zM683 228v227h227v-227h-227zM683 1138v227h227v-227h-227zM910 0v228h228v-228h-228zM910 1365v228h228v-228h-228z" unicode="K"/><glyph d="M0 0v1593h228v-1365h910v-228h-1138z" unicode="L"/><glyph d="M910 1138v227h228v228h227v-1593h-227v1138h-228zM455 910v228h455v-228h-455zM0 0v1593h228v-228h227v-227h-227v-1138h-228z" horiz-adv-x="1593" unicode="M"/><glyph d="M683 455v228h227v910h228v-1593h-228v455h-227zM455 683v227h228v-227h-228zM0 0v1593h228v-455h227v-228h-227v-910h-228z" unicode="N"/><glyph d="M910 229v1137h228v-1137h-228zM0 229v1137h228v-1137h-228zM228 1365v228h682v-228h-682zM228 1v228h682v-228h-682z" unicode="O"/><glyph d="M910 684v682h228v-682h-228zM0 0v1593h910v-228h-682v-682h682v-228h-682v-455h-228z" unicode="P"/><glyph d="M1138 -227v228h227v-228h-227zM228 0v228h455v227h227v910h228v-1365h-910zM228 1365v228h682v-228h-682zM0 229v1137h228v-1137h-228z" horiz-adv-x="1593" unicode="Q"/><glyph d="M910 684v682h228v-682h-228zM910 0v228h228v-228h-228zM0 0v1593h910v-228h-682v-682h682v-455h-227v227h-455v-455h-228z" unicode="R"/><glyph d="M0 228v227h228v-227h-228zM0 910v455h228v-455h-228zM228 0v228h682v-228h-682zM228 683v227h682v-227h-682zM228 1365v228h682v-228h-682zM910 228v455h228v-455h-228zM910 1138v227h228v-227h-228z" unicode="S"/><glyph d="M0 1365v228h1138v-228h-455v-1365h-228v1365h-455z" unicode="T"/><glyph d="M910 228v1365h228v-1365h-228zM228 1v228h682v-228h-682zM1 228v1365h228v-1365h-228z" unicode="U"/><glyph d="M910 683v910h228v-910h-228zM683 229v455h227v-455h-227zM455 0v228h228v-228h-228zM228 229v455h227v-455h-227zM0 683v910h228v-910h-228z" unicode="V"/><glyph d="M0 683v910h228v-910h-228zM228 228v455h227v-455h-227zM455 0v228h228v-228h-228zM683 228v910h227v-910h-227zM910 0v228h228v-228h-228zM1138 228v455h227v-455h-227zM1365 683v910h228v-910h-228z" horiz-adv-x="1820" unicode="W"/><glyph d="M0 0v455h228v-455h-228zM0 1138v455h228v-455h-228zM228 455v228h227v-228h-227zM228 910v228h227v-228h-227zM455 683v227h228v-227h-228zM683 455v228h227v-228h-227zM683 910v228h227v-228h-227zM910 0v455h228v-455h-228zM910 1138v455h228v-455h-228z" unicode="X"/><glyph d="M910 910v683h228v-683h-228zM683 683v227h227v-227h-227zM455 1v683h228v-683h-228zM228 683v227h227v-227h-227zM0 910v683h228v-683h-228z" unicode="Y"/><glyph d="M683 910v228h227v-228h-227zM228 455v228h227v-228h-227zM455 683v227h228v-227h-228zM0 1365v228h1138v-455h-228v227h-910zM0 0v455h228v-227h910v-228h-1138z" unicode="Z"/><glyph d="M0 0v1593h683v-228h-455v-1137h455v-228h-683z" horiz-adv-x="910" unicode="["/><glyph d="M0 1365v228h228v-228h-228zM228 1138v227h227v-227h-227zM455 910v228h228v-228h-228zM683 683v227h227v-227h-227zM910 455v228h228v-228h-228zM1138 228v227h227v-227h-227zM1365 0v228h228v-228h-228z" horiz-adv-x="1820" unicode="\"/><glyph d="M0 0v228h455v1137h-455v228h683v-1593h-683z" horiz-adv-x="910" unicode="]"/><glyph d="M455 1138v227h228v-227h-228zM228 1365v228h227v-228h-227zM0 1138v227h228v-227h-228z" horiz-adv-x="910" unicode="^"/><glyph d="M0 0v228h1365v-228h-1365z" horiz-adv-x="1593" unicode="_"/><glyph d="M228 1138v227h227v-227h-227zM0 1365v228h228v-228h-228z" horiz-adv-x="683" unicode="`"/><glyph d="M228 0v228h682v227h-682v228h682v227h228v-910h-910zM228 910v228h682v-228h-682zM0 228v227h228v-227h-228z" unicode="a"/><glyph d="M910 229v682h228v-682h-228zM0 0v1593h228v-455h682v-228h-682v-682h682v-228h-910z" unicode="b"/><glyph d="M910 683v227h228v-227h-228zM910 228v227h228v-227h-228zM228 910v228h682v-228h-682zM228 1v228h682v-228h-682zM0 229v682h228v-682h-228z" unicode="c"/><glyph d="M228 0v228h682v682h-682v228h682v455h228v-1593h-910zM0 229v682h228v-682h-228z" unicode="d"/><glyph d="M0 228v682h228v-227h682v227h228v-455h-910v-227h-228zM228 1v228h910v-228h-910zM228 910v228h682v-228h-682z" unicode="e"/><glyph d="M455 1365v228h455v-228h-455zM0 910v228h228v227h227v-227h228v-228h-228v-910h-227v910h-228z" horiz-adv-x="1138" unicode="f"/><glyph d="M228 0v228h682v682h-682v228h910v-1366h-228v228h-682zM228 -454v227h682v-227h-682zM0 229v682h228v-682h-228z" unicode="g"/><glyph d="M910 1v910h228v-910h-228zM0 0v1593h228v-455h682v-228h-682v-910h-228z" unicode="h"/><glyph d="M0 1365v228h228v-228h-228zM0 0v1138h228v-1138h-228z" horiz-adv-x="455" unicode="i"/><glyph d="M228 1365v228h227v-228h-227zM228 -228v1366h227v-1366h-227zM0 -454v227h228v-227h-228z" horiz-adv-x="683" unicode="j"/><glyph d="M683 910v228h227v-228h-227zM683 0v228h227v-228h-227zM455 228v227h228v-227h-228zM455 683v227h228v-227h-228zM0 0v1593h228v-910h227v-228h-227v-455h-228z" horiz-adv-x="1138" unicode="k"/><glyph d="M0 0v1593h228v-1593h-228z" horiz-adv-x="455" unicode="l"/><glyph d="M1365 1v910h228v-910h-228zM0 0v1138h1365v-228h-455v-910h-227v910h-455v-910h-228z" horiz-adv-x="1820" unicode="m"/><glyph d="M910 1v910h228v-910h-228zM0 0v1138h910v-228h-682v-910h-228z" unicode="n"/><glyph d="M910 229v682h228v-682h-228zM228 910v228h682v-228h-682zM228 1v228h682v-228h-682zM0 229v682h228v-682h-228z" unicode="o"/><glyph d="M910 229v682h228v-682h-228zM0 -454v1593h910v-228h-682v-682h682v-228h-682v-455h-228z" unicode="p"/><glyph d="M228 0v228h682v682h-682v228h910v-1593h-228v455h-682zM0 229v682h228v-682h-228z" unicode="q"/><glyph d="M455 910v228h455v-228h-455zM0 0v1138h228v-228h227v-227h-227v-683h-228z" horiz-adv-x="1138" unicode="r"/><glyph d="M0 1v228h910v-228h-910zM0 683v227h228v-227h-228zM228 455v228h682v-228h-682zM228 910v228h910v-228h-910zM910 228v227h228v-227h-228z" unicode="s"/><glyph d="M455 0v228h455v-228h-455zM0 910v228h228v455h227v-455h455v-228h-455v-682h-227v682h-228z" horiz-adv-x="1138" unicode="t"/><glyph d="M910 229v910h228v-910h-228zM228 1v228h682v-228h-682zM0 229v910h228v-910h-228z" unicode="u"/><glyph d="M910 684v455h228v-455h-228zM683 229v455h227v-455h-227zM455 0v228h228v-228h-228zM228 229v455h227v-455h-227zM0 684v455h228v-455h-228z" unicode="v"/><glyph d="M1365 229v910h228v-910h-228zM910 0v228h455v-228h-455zM683 229v910h227v-910h-227zM228 0v228h455v-228h-455zM0 229v910h228v-910h-228z" horiz-adv-x="1820" unicode="w"/><glyph d="M0 0v228h228v-228h-228zM0 910v228h228v-228h-228zM228 228v227h227v-227h-227zM228 683v227h227v-227h-227zM455 455v228h228v-228h-228zM683 228v227h227v-227h-227zM683 683v227h227v-227h-227zM910 0v228h228v-228h-228zM910 910v228h228v-228h-228z" unicode="x"/><glyph d="M228 0v228h682v910h228v-1366h-228v228h-682zM228 -454v227h682v-227h-682zM0 229v910h228v-910h-228z" unicode="y"/><glyph d="M455 455v228h228v-228h-228zM0 910v228h1138v-228h-228v-227h-227v227h-683zM0 0v228h228v227h227v-227h683v-228h-1138z" unicode="z"/><glyph d="M455 1365v228h455v-228h-455zM455 0v228h455v-228h-455zM228 911v455h227v-455h-227zM228 229v455h227v-455h-227zM0 683v227h228v-227h-228z" horiz-adv-x="1138" unicode="{"/><glyph d="M0 683v682h228v228h455v-228h227v228h455v-228h228v-682h-228v-228h-227v-227h-228v-228h-227v228h-228v227h-227v228h-228zM228 683h227v-228h228v-227h227v227h228v228h227v682h-455v-227h-227v227h-455v-682z" horiz-adv-x="1820" unicode="|"/><glyph d="M683 683v227h227v-227h-227zM1 0v228h455v-228h-455zM455 229v455h228v-455h-228zM455 911v455h228v-455h-228zM1 1365v228h455v-228h-455z" horiz-adv-x="1138" unicode="}"/><glyph d="M910 1365v228h228v-228h-228zM228 1365v228h455v-228h227v-227h-455v227h-227zM0 1138v227h228v-227h-228z" unicode="~"/><glyph d="M0 910v228h228v-228h-228zM0 -454v1138h228v-1138h-228z" horiz-adv-x="455" unicode="¡"/><glyph d="M910 683v227h228v-227h-228zM228 0v228h227v682h-227v228h227v227h228v-227h227v-228h-227v-682h227v-228h-227v-228h-228v228h-227zM910 228v227h228v-227h-228zM0 229v682h228v-682h-228z" unicode="¢"/><glyph d="M455 1365v228h683v-228h-683zM228 683v682h227v-455h455v-227h-682zM0 0v683h228v-455h910v-228h-1138z" unicode="£"/><glyph d="M0 455v228h228v227h-228v228h228v227h227v-227h683v-228h-683v-227h683v-228h-683v-227h-227v227h-228zM455 1v228h910v-228h-910zM455 1365v228h910v-228h-910z" horiz-adv-x="1593" unicode="¤"/><glyph d="M0 455v228h228v227h-228v228h228v227h227v-227h683v-228h-683v-227h683v-228h-683v-227h-227v227h-228zM455 1v228h910v-228h-910zM455 1365v228h910v-228h-910z" horiz-adv-x="1593" unicode="€"/><glyph d="M0 910v228h910v455h228v227h227v-227h228v-455h910v-228h-455v-227h-228v-228h228v-455h228v-228h-456v228h-227v228h-683v-228h-227v-228h-455v228h227v455h228v228h-228v227h-455z" horiz-adv-x="2731" unicode="¥"/><glyph d="M0 0h228v-228h-228v228zM0 455v455h228v-455h-228zM0 1138v455h228v-455h-228zM228 -228h682v-227h-682v227zM228 228v227h682v-227h-682zM228 910v228h682v-228h-682zM228 1593v227h682v-227h-682zM910 -228v456h228v-456h-228zM910 455v455h228v-455h-228zM910 1365 v228h228v-228h-228z" unicode="§"/><glyph d="M455 1593v227h228v-227h-228zM0 1593v227h228v-227h-228z" horiz-adv-x="910" unicode="¨"/><glyph d="M0 455v683h228v-683h-228zM228 228v227h227v-227h-227zM228 1138v227h227v-227h-227zM455 0v228h683v-228h-683zM455 455v683h683v-228h-455v-227h455v-228h-683zM455 1365v228h683v-228h-683zM1138 228v227h227v-227h-227zM1138 1138v227h227v-227h-227zM1365 455v683 h228v-683h-228z" horiz-adv-x="1820" unicode="©"/><glyph d="M1138 683v455h455v-455h-455zM455 683v455h455v-455h-455zM0 455v910h228v228h227v227h1138v-227h227v-228h228v-910h-228v-455h-227v-228h-1138v228h-227v455h-228zM228 455h227v-455h228v455h227v-455h228v455h227v-455h228v455h227v910h-227v228h-1138v-228h-227v-910 z" horiz-adv-x="2276" unicode="ª"/><glyph d="M0 683v227h228v-227h-228zM228 455v228h227v-228h-227zM228 910v228h227v-228h-227zM455 228v227h228v-227h-228zM455 1138v227h228v-227h-228zM683 683v227h227v-227h-227zM910 455v228h228v-228h-228zM910 910v228h228v-228h-228zM1138 228v227h227v-227h-227z M1138 1138v227h227v-227h-227z" horiz-adv-x="1593" unicode="«"/><glyph d="M228 228v227h227v-227h-227zM228 1138v455h227v-455h-227zM455 0v228h228v-228h-228zM455 455v228h228v-228h-228zM455 910v228h455v-228h-455zM455 1593v227h455v-227h-455zM683 228v227h227v-227h-227zM910 1138v455h228v-455h-228zM1138 0h227v-228h-227v228z M1365 228v682h228v228h227v227h228v228h455v227h455v-227h455v-228h228v-227h227v-228h456v228h227v227h228v-227h-228v-228h-227v-227h227v227h228v-227h-228v-228h228v-227h-228v227h-227v-227h227v-228h228v-228h-228v228h-227v228h-456v-228h-227v-228h-455v-227h-1138 v227h-228v228h-227v228h-228zM1593 228h910v227h228v-227h-228v-228h-455v-228h1138v228h455v228h227v227h456v228h-456v227h-227v228h-228v227h-455v228h-455v-228h-455v-227h-228v-228h-227v-682zM2048 455v455h228v-455h-228z" horiz-adv-x="5234" unicode="¬"/><glyph d="M0 455v228h910v-228h-910z" horiz-adv-x="1138" unicode="­"/><glyph d="M0 455v683h228v-683h-228zM228 228v227h227v-227h-227zM228 1138v227h227v-227h-227zM455 0v228h683v-228h-683zM455 455v683h683v-228h-228v-227h-227v-228h-228zM455 1365v228h683v-228h-683zM910 455v228h228v-228h-228zM1138 228v227h227v-227h-227zM1138 1138v227 h227v-227h-227zM1365 455v683h228v-683h-228z" horiz-adv-x="1820" unicode="®"/><glyph d="M0 1593v227h683v-227h-683z" horiz-adv-x="910" unicode="¯"/><glyph d="M683 1138v455h227v-455h-227zM228 1593v227h455v-227h-455zM228 910v228h455v-228h-455zM0 1138v455h228v-455h-228z" horiz-adv-x="1138" unicode="°"/><glyph d="M0 0v1593h683v227h227v-1820h-910zM228 910h455v228h-455v-228z" horiz-adv-x="1138" unicode="±"/><glyph d="M0 0v683h228v-455h910v-228h-1138zM0 1365v228h910v-228h-910zM228 683v227h682v-227h-682zM910 911v455h228v-455h-228z" unicode="²"/><glyph d="M0 1v228h910v-228h-910zM0 1365v228h910v-228h-910zM228 683v227h682v-227h-682zM910 229v455h228v-455h-228zM910 911v455h228v-455h-228z" unicode="³"/><glyph d="M228 1593v227h227v-227h-227zM0 1365v228h228v-228h-228z" horiz-adv-x="683" unicode="´"/><glyph d="M0 0h228v-228h1592v228h228v-228h-228v-227h-1592v227h-228v228zM228 228v910h1592v-228h456v-455h-228v-227h-455v-228h-1138v228h-227zM455 228h1138v682h-1138v-682zM683 1365v228h227v-228h-227zM910 1593v227h228v-227h-228zM1138 1365v228h227v-228h-227z M1365 1593v227h228v-227h-228zM1820 455h228v228h-228v-228z" horiz-adv-x="2503" unicode="µ"/><glyph d="M0 455v228h228v-228h-228zM0 910v228h228v-228h-228zM228 1365v228h227v-228h-227zM455 455v683h228v227h910v-227h227v-683h-227v-455h-228v228h-455v-228h-227v455h-228zM683 455h910v683h-910v-683zM683 1593v227h227v-227h-227zM910 0h455v-228h-455v228zM1365 1593 v227h228v-227h-228zM1820 1365v228h228v-228h-228zM2048 455v228h228v-228h-228zM2048 910v228h228v-228h-228z" horiz-adv-x="2503" unicode="¶"/><glyph horiz-adv-x="1138" unicode="·"/><glyph d="M0 -454v455h228v-455h-228z" horiz-adv-x="455" unicode="¸"/><glyph d="M0 1365v228h455v-1593h-227v1365h-228z" horiz-adv-x="683" unicode="¹"/><glyph d="M0 0h228v455h227v228h-455v455h228v682h1137v-227h-227v-228h-228v-227h-227v-228h455v-227h-228v-228h-227v-227h-228v-228h-227v-228h-228v228z" horiz-adv-x="1593" unicode="º"/><glyph d="M0 455v455h455v-227h228v227h-228v455h228v228h227v-228h228v-455h-228v-227h228v227h455v-455h-683v-227h455v-228h-1137v228h455v227h-683z" horiz-adv-x="1820" unicode="»"/><glyph d="M0 -228v456h228v-456h-228zM228 -228h682v-227h-682v227zM228 228v227h227v-227h-227zM455 455v228h228v-228h-228zM455 910v228h228v-228h-228zM910 0h228v-228h-228v228z" unicode="¿"/><glyph d="M228 1138v227h227v228h228v-228h227v-227h-682zM228 1593v227h227v-227h-227zM0 0v1138h228v-455h682v455h228v-1138h-228v455h-682v-455h-228z" unicode="À"/><glyph d="M683 1593v227h227v-227h-227zM228 1138v227h227v228h228v-228h227v-227h-682zM0 0v1138h228v-455h682v455h228v-1138h-228v455h-682v-455h-228z" unicode="Á"/><glyph d="M455 1593v227h228v-227h-228zM228 1138v455h227v-228h228v228h227v-455h-682zM0 0v1138h228v-455h682v455h228v-1138h-228v455h-682v-455h-228z" unicode="Â"/><glyph d="M910 1593v227h228v-227h-228zM228 1138v227h227v228h-227v227h455v-227h227v-455h-682zM0 0v1138h228v-455h682v455h228v-1138h-228v455h-682v-455h-228zM0 1365v228h228v-228h-228z" unicode="Ã"/><glyph d="M683 1593v227h227v-227h-227zM228 1138v227h682v-227h-682zM228 1593v227h227v-227h-227zM0 0v1138h228v-228h682v228h228v-1138h-228v683h-682v-683h-228z" unicode="Ä"/><glyph d="M455 1593v227h228v-227h-228zM228 1138v455h227v-228h228v228h227v-455h-682zM0 0v1138h228v-228h682v228h228v-1138h-228v683h-682v-683h-228z" unicode="Å"/><glyph d="M0 0v1365h228v-455h682v455h-682v228h1820v-228h-910v-455h910v-227h-910v-455h910v-228h-1138v683h-682v-683h-228z" horiz-adv-x="2276" unicode="Æ"/><glyph d="M0 228v1137h228v-1137h-228zM228 0v228h682v-228h-227v-228h-228v228h-227zM228 -228h227v-227h-227v227zM228 1365v228h682v-228h-682zM910 228v227h228v-227h-228zM910 1138v227h228v-227h-228z" unicode="Ç"/><glyph d="M228 1593v227h227v-227h-227zM0 0v1365h455v228h228v-228h455v-227h-910v-228h682v-227h-682v-455h910v-228h-1138z" unicode="È"/><glyph d="M683 1593v227h227v-227h-227zM455 1365v228h228v-228h-228zM0 0v1138h1138v-228h-910v-227h682v-228h-682v-227h910v-228h-1138z" unicode="É"/><glyph d="M455 1593v227h228v-227h-228zM0 0v1365h228v228h227v-228h228v228h227v-228h228v-227h-910v-228h682v-227h-682v-455h910v-228h-1138z" unicode="Ê"/><glyph d="M683 1593v227h227v-227h-227zM0 0v1365h1138v-227h-910v-228h682v-227h-682v-455h910v-228h-1138zM228 1593v227h227v-227h-227z" unicode="Ë"/><glyph d="M0 0v910h228v455h227v228h455v-228h228v-455h227v-910h-1365zM228 228h910v455h-910v-455zM455 910h455v455h-455v-455z" horiz-adv-x="1593" unicode="Ì"/><glyph d="M0 228v227h228v228h455v910h227v-228h228v-227h227v-228h-227v228h-228v-910h-227v-228h-455v228h-228z" horiz-adv-x="1593" unicode="Í"/><glyph d="M228 1593v227h227v-227h-227zM0 0v228h228v910h-228v455h228v-228h227v228h228v-455h-228v-910h228v-228h-683z" horiz-adv-x="910" unicode="Î"/><glyph d="M455 1593v227h228v-227h-228zM0 0v228h228v910h-228v227h683v-227h-228v-910h228v-228h-683zM0 1593v227h228v-227h-228z" horiz-adv-x="910" unicode="Ï"/><glyph d="M0 0v1138h228v-228h227v-227h-227v-683h-228zM0 1365v228h228v-228h-228zM228 1593v227h455v-227h227v-228h-455v228h-227zM455 455v228h228v-228h-228zM683 228v227h227v683h228v-1138h-228v228h-227zM910 1593v227h228v-227h-228z" unicode="Ñ"/><glyph d="M910 229v910h228v-910h-228zM228 1593v227h227v-227h-227zM228 1138v227h227v228h228v-228h227v-227h-682zM228 1v228h682v-228h-682zM0 229v910h228v-910h-228z" unicode="Ò"/><glyph d="M910 229v910h228v-910h-228zM683 1593v227h227v-227h-227zM228 1138v227h227v228h228v-228h227v-227h-682zM228 1v228h682v-228h-682zM0 229v910h228v-910h-228z" unicode="Ó"/><glyph d="M910 229v910h228v-910h-228zM228 1138v455h227v-228h228v228h227v-455h-682zM455 1593v227h228v-227h-228zM228 1v228h682v-228h-682zM0 229v910h228v-910h-228z" unicode="Ô"/><glyph d="M0 683v227h228v228h227v227h228v228h227v-228h228v-227h227v-228h228v-227h-228v-228h-227v-227h-228v-228h-227v228h-228v227h-227v228h-228z" horiz-adv-x="1820" unicode="Õ"/><glyph d="M0 228v910h228v-910h-228zM228 0v228h682v-228h-682zM228 1138v227h682v-227h-682zM228 1593v227h227v-227h-227zM683 1593v227h227v-227h-227zM910 228v910h228v-910h-228z" unicode="Ö"/><glyph d="M1138 1593v227h227v-227h-227zM455 683v227h228v-227h-228zM228 1365v228h910v-1365h-228v682h-227v455h-455zM0 0v1365h228v-682h227v-455h455v-228h-910zM-227 -227v228h228v-228h-228z" horiz-adv-x="1593" unicode="Ø"/><glyph d="M910 229v1137h228v-1137h-228zM455 1365v228h228v-228h-228zM228 1v228h682v-228h-682zM0 229v1137h228v-1137h-228zM228 1593v227h227v-227h-227z" unicode="Ù"/><glyph d="M910 229v1137h228v-1137h-228zM683 1593v227h227v-227h-227zM455 1365v228h228v-228h-228zM228 1v228h682v-228h-682zM0 229v1137h228v-1137h-228z" unicode="Ú"/><glyph d="M0 228v1137h228v-1137h-228zM228 0v228h682v-228h-682zM228 1365v228h227v-228h-227zM455 1593v227h228v-227h-228zM683 1365v228h227v-228h-227zM910 228v1137h228v-1137h-228z" unicode="Û"/><glyph d="M910 229v1137h228v-1137h-228zM683 1593v227h227v-227h-227zM228 1593v227h227v-227h-227zM228 1v228h682v-228h-682zM0 229v1137h228v-1137h-228z" unicode="Ü"/><glyph d="M683 1943v227h227v-227h-227zM455 1715v228h228v-228h-228zM910 910v683h228v-683h-228zM683 683v227h227v-227h-227zM455 1v683h228v-683h-228zM228 683v227h227v-227h-227zM0 910v683h228v-683h-228z" unicode="Ý"/><glyph d="M910 911v455h228v-455h-228zM910 229v455h228v-455h-228zM455 0v228h455v-228h-455zM228 1365v228h682v-228h-682zM0 -455v1820h228v-455h682v-227h-682v-1138h-228z" unicode="ß"/><glyph d="M455 1365v228h228v-228h-228zM228 0v228h682v227h-682v228h682v227h228v-910h-910zM228 1593v227h227v-227h-227zM228 910v228h682v-228h-682zM0 228v227h228v-227h-228z" unicode="à"/><glyph d="M683 1593v227h227v-227h-227zM455 1365v228h228v-228h-228zM228 0v228h682v227h-682v228h682v227h228v-910h-910zM228 910v228h682v-228h-682zM0 228v227h228v-227h-228z" unicode="á"/><glyph d="M0 228v227h228v-227h-228zM228 0v228h682v227h-682v228h682v227h228v-910h-910zM228 910v228h682v-228h-682zM228 1365v228h227v-228h-227zM455 1593v227h228v-227h-228zM683 1365v228h227v-228h-227z" unicode="â"/><glyph d="M0 228v227h228v-227h-228zM0 1365v228h228v-228h-228zM228 0v228h682v227h-682v228h682v227h228v-910h-910zM228 910v228h682v-228h-682zM228 1593v227h455v-227h227v-228h-455v228h-227zM910 1593v227h228v-227h-228z" unicode="ã"/><glyph d="M683 1365v228h227v-228h-227zM228 0v228h682v227h-682v228h682v227h228v-910h-910zM228 910v228h682v-228h-682zM228 1365v228h227v-228h-227zM0 228v227h228v-227h-228z" unicode="ä"/><glyph d="M0 228v227h228v-227h-228zM228 0v228h682v227h-682v228h682v227h228v-910h-910zM228 910v228h227v227h228v-227h227v-228h-682zM228 1365v228h227v-228h-227zM455 1593v227h228v-227h-228zM683 1365v228h227v-228h-227z" unicode="å"/><glyph d="M1138 910v228h682v-228h-682zM228 0v228h682v227h-682v228h682v227h228v-227h682v227h228v-455h-910v-227h910v-228h-1820zM228 910v228h682v-228h-682zM0 228v227h228v-227h-228z" horiz-adv-x="2276" unicode="æ"/><glyph d="M0 228v682h228v-682h-228zM228 0v228h682v-228h-227v-228h-228v228h-227zM228 -228h227v-227h-227v227zM228 910v228h682v-228h-682zM910 228v227h228v-227h-228zM910 683v227h228v-227h-228z" unicode="ç"/><glyph d="M0 228v682h228v-227h682v227h228v-455h-910v-227h-228zM228 1v228h910v-228h-910zM228 910v228h682v-228h-682zM228 1593v227h227v-227h-227zM455 1365v228h228v-228h-228z" unicode="è"/><glyph d="M0 228v682h228v-227h682v227h228v-455h-910v-227h-228zM228 1v228h910v-228h-910zM228 910v228h682v-228h-682zM455 1365v228h228v-228h-228zM683 1593v227h227v-227h-227z" unicode="é"/><glyph d="M0 228v682h228v-227h682v227h228v-455h-910v-227h-228zM228 0v228h910v-228h-910zM228 910v228h682v-228h-682zM228 1365v228h227v-228h-227zM455 1593v227h228v-227h-228zM683 1365v228h227v-228h-227z" unicode="ê"/><glyph d="M0 228v682h228v-227h682v227h228v-455h-910v-227h-228zM228 1v228h910v-228h-910zM228 910v228h682v-228h-682zM228 1365v228h227v-228h-227zM683 1365v228h227v-228h-227z" unicode="ë"/><glyph d="M0 228v1137h228v228h227v227h910v-227h228v-228h227v-682h-227v-228h-228v-227h-682v227h-228v683h228v227h455v-227h227v-228h-227v-227h-228v227h228v228h-455v-683h682v228h228v682h-228v228h-910v-228h-227v-1137h227v-228h1138v228h227v-228h-227v-228h-1138v228 h-227v228h-228z" horiz-adv-x="2048" unicode="ì"/><glyph d="M0 228v227h228v228h455v910h227v-1365h-227v-228h-455v228h-228zM228 228h455v227h-455v-227z" horiz-adv-x="1138" unicode="í"/><glyph d="M228 1365v228h227v-228h-227zM0 1593v227h228v-227h-228zM0 0v1138h228v-1138h-228zM-227 1365v228h228v-228h-228z" horiz-adv-x="683" unicode="î"/><glyph d="M228 1365v228h227v-228h-227zM0 0v1138h228v-1138h-228zM-227 1365v228h228v-228h-228z" horiz-adv-x="683" unicode="ï"/><glyph d="M910 1593v227h228v-227h-228zM228 1593v227h455v-227h227v-228h-455v228h-227zM910 1v910h228v-910h-228zM0 1365v228h228v-228h-228zM0 0v1138h910v-228h-682v-910h-228z" unicode="ñ"/><glyph d="M0 228v682h228v-682h-228zM228 0v228h682v-228h-682zM228 910v228h682v-228h-682zM228 1593v227h227v-227h-227zM455 1365v228h228v-228h-228zM910 228v682h228v-682h-228z" unicode="ò"/><glyph d="M0 228v682h228v-682h-228zM228 0v228h682v-228h-682zM228 910v228h682v-228h-682zM455 1365v228h228v-228h-228zM683 1593v227h227v-227h-227zM910 228v682h228v-682h-228z" unicode="ó"/><glyph d="M0 228v682h228v-682h-228zM228 0v228h682v-228h-682zM228 910v228h682v-228h-682zM228 1365v228h227v-228h-227zM455 1593v227h228v-227h-228zM683 1365v228h227v-228h-227zM910 228v682h228v-682h-228z" unicode="ô"/><glyph d="M0 455v455h228v228h227v227h228v228h227v-228h228v-227h227v-228h228v-455h-455v-227h227v-228h-1137v228h227v227h-455z" horiz-adv-x="1820" unicode="õ"/><glyph d="M0 228v682h228v-682h-228zM228 0v228h682v-228h-682zM228 910v228h682v-228h-682zM228 1365v228h227v-228h-227zM683 1365v228h227v-228h-227zM910 228v682h228v-682h-228z" unicode="ö"/><glyph d="M0 910v683h228v227h1137v-227h455v-228h-455v228h-1137v-683h455v228h227v-228h-227v-682h227v455h228v227h227v228h455v-228h-455v-227h-227v-683h-455v228h-228v455h-227v227h-228z" horiz-adv-x="2048" unicode="÷"/><glyph d="M1365 1138v227h228v-227h-228zM455 910v228h910v-910h-227v455h-228v227h-455zM228 0v910h227v-455h228v-227h455v-228h-910zM683 455v228h227v-228h-227zM0 -227v228h228v-228h-228z" horiz-adv-x="1820" unicode="ø"/><glyph d="M910 229v910h228v-910h-228zM455 1365v228h228v-228h-228zM228 1v228h682v-228h-682zM0 229v910h228v-910h-228zM228 1593v227h227v-227h-227z" unicode="ù"/><glyph d="M910 229v910h228v-910h-228zM683 1593v227h227v-227h-227zM455 1365v228h228v-228h-228zM228 1v228h682v-228h-682zM0 229v910h228v-910h-228z" unicode="ú"/><glyph d="M0 228v910h228v-910h-228zM228 0v228h682v-228h-682zM228 1365v228h227v-228h-227zM455 1593v227h228v-227h-228zM683 1365v228h227v-228h-227zM910 228v910h228v-910h-228z" unicode="û"/><glyph d="M910 229v910h228v-910h-228zM683 1365v228h227v-228h-227zM228 1v228h682v-228h-682zM0 229v910h228v-910h-228zM228 1365v228h227v-228h-227z" unicode="ü"/><glyph d="M228 1489v227h227v-227h-227zM0 1261v228h228v-228h-228zM228 0v228h682v910h228v-1366h-228v228h-682zM228 -454v227h682v-227h-682zM0 229v910h228v-910h-228z" unicode="ý"/><glyph d="M683 1365v228h227v-228h-227zM228 0v228h682v910h228v-1366h-228v228h-682zM228 -454v227h682v-227h-682zM0 229v910h228v-910h-228zM228 1365v228h227v-228h-227z" unicode="ÿ"/><glyph d="M228 0v228h682v1137h-682v228h1592v-228h-682v-455h682v-227h-682v-455h682v-228h-1592zM0 229v1137h228v-1137h-228z" horiz-adv-x="2048" unicode="Œ"/><glyph d="M228 0v228h682v682h-682v228h1592v-228h-682v-227h682v227h228v-455h-910v-227h910v-228h-1820zM0 229v682h228v-682h-228z" horiz-adv-x="2276" unicode="œ"/><glyph d="M0 910v455h228v-455h-228zM228 683v227h227v-227h-227zM228 1593v227h227v-227h-227zM455 0v683h228v-683h-228zM683 683v227h227v-227h-227zM683 1593v227h227v-227h-227zM910 910v455h228v-455h-228z" unicode="Ÿ"/><glyph d="M455 1365v228h228v-228h-228zM228 1593v227h227v-227h-227zM0 1365v228h228v-228h-228z" horiz-adv-x="910" unicode="ˆ"/><glyph d="M341 349v228h228v-228h-228zM-341 349v228h455v-228h227v-227h-455v227h-227zM-569 122v227h228v-227h-228z" horiz-adv-x="1138" unicode="˜"/><glyph horiz-adv-x="1085"/><glyph horiz-adv-x="2170"/><glyph horiz-adv-x="1085"/><glyph horiz-adv-x="2170"/><glyph horiz-adv-x="723"/><glyph horiz-adv-x="542"/><glyph horiz-adv-x="361"/><glyph horiz-adv-x="361"/><glyph horiz-adv-x="271"/><glyph horiz-adv-x="434"/><glyph horiz-adv-x="120"/><glyph d="M0 455v228h910v-228h-910z" horiz-adv-x="1138" unicode="‐"/><glyph d="M0 455v228h910v-228h-910z" horiz-adv-x="1138" unicode="‑"/><glyph d="M0 455v228h910v-228h-910z" horiz-adv-x="1138" unicode="‒"/><glyph d="M0 455v228h1138v-228h-1138z" unicode="–"/><glyph d="M0 0v228h228v227h455v1138h682v227h683v-1592h-228v-228h-455v228h-227v227h227v228h455v455h-455v-228h-455v-910h-227v-228h-455v228h-228zM910 1138h455v227h-455v-227zM1365 1365h455v228h-455v-228z" horiz-adv-x="2276" unicode="—"/><glyph d="M0 0v910h228v455h227v228h455v-228h228v-455h227v-910h-1365zM455 910h455v455h-455v-455z" horiz-adv-x="1593" unicode="‘"/><glyph d="M0 1138v455h455v-683h-227v228h-228zM0 683v227h228v-227h-228z" horiz-adv-x="683" unicode="’"/><glyph d="M0 0v455h455v-683h-227v228h-228zM0 -454v227h228v-227h-228z" horiz-adv-x="683" unicode="‚"/><glyph d="M683 1138v455h228v-228h227v-227h-455zM0 1138v455h228v-228h227v-227h-455z" unicode="“"/><glyph d="M683 1365v228h455v-455h-227v227h-228zM0 1365v228h455v-455h-227v227h-228z" unicode="”"/><glyph d="M683 0v455h455v-683h-227v228h-228zM683 -454v227h227v-227h-227zM0 -454v227h228v-227h-228zM0 0v455h455v-683h-227v228h-228z" unicode="„"/><glyph d="M0 228v682h228v228h227v455h228v227h455v-682h227v-228h455v-227h-455v227h-227v228h-228v455h-227v-683h227v-227h-227v227h-455v-682h1137v227h455v-227h-455v-228h-1137v228h-228z" horiz-adv-x="2048" unicode="•"/><glyph d="M1820 0v455h456v-455h-456zM0 0v455h455v-455h-455zM910 0v455h455v-455h-455z" horiz-adv-x="2503" unicode="…"/><glyph horiz-adv-x="434"/><glyph d="M455 1138v227h228v-227h-228zM455 228v227h228v-227h-228zM228 910v228h227v-228h-227zM228 455v228h227v-228h-227zM0 683v227h228v-227h-228z" horiz-adv-x="910" unicode="‹"/><glyph d="M455 683v227h228v-227h-228zM0 228v227h228v-227h-228zM228 455v228h227v-228h-227zM228 910v228h227v-228h-227zM0 1138v227h228v-227h-228z" horiz-adv-x="910" unicode="›"/><glyph horiz-adv-x="542"/><glyph d="M910 1138v682h228v-227h227v227h228v-682h-228v227h-227v-227h-228zM0 1593v227h683v-227h-228v-455h-227v455h-228z" horiz-adv-x="1820" unicode="™"/><glyph d="M0 1140h1140v-1140h-1140v1140z" horiz-adv-x="1140" unicode=""/><glyph d="M1138 1365v228h228v-228h-228zM1138 0v1138h228v-1138h-228zM455 1365v228h455v-228h-455zM0 910v228h228v227h227v-227h228v-228h-228v-910h-227v910h-228z" horiz-adv-x="1593" unicode="ﬁ"/><glyph d="M1138 0v1593h228v-1593h-228zM455 1365v228h455v-228h-455zM0 910v228h228v227h227v-227h228v-228h-228v-910h-227v910h-228z" horiz-adv-x="1593" unicode="ﬂ"/><glyph d="M2276 1365v228h228v-228h-228zM2276 0v1138h228v-1138h-228zM1593 1365v228h455v-228h-455zM1138 910v228h228v227h227v-227h228v-228h-228v-910h-227v910h-228zM455 1365v228h455v-228h-455zM0 910v228h228v227h227v-227h228v-228h-228v-910h-227v910h-228z" horiz-adv-x="2731" unicode="ﬃ"/><glyph d="M2276 0v1593h228v-1593h-228zM1593 1365v228h455v-228h-455zM1138 910v228h228v227h227v-227h228v-228h-228v-910h-227v910h-228zM455 1365v228h455v-228h-455zM0 910v228h228v227h227v-227h228v-228h-228v-910h-227v910h-228z" horiz-adv-x="2731" unicode="ﬄ"/><glyph d="M0 455v1138h228v-1138h-228z" horiz-adv-x="0"/><glyph d="M0 0v228h228v-228h-228z" horiz-adv-x="0"/><glyph d="M0 1138v455h228v-455h-228z" horiz-adv-x="0"/><glyph d="M0 0v228h455v455h-227v227h227v455h-227v228h227v227h228v-227h227v227h228v-227h455v-228h-455v-455h227v-227h-227v-455h227v-228h-227v-228h-228v228h-227v-228h-228v228h-455zM683 228h227v455h-227v-455zM683 910h227v455h-227v-455z" horiz-adv-x="0"/><glyph d="M228 0v228h455v-228h-455z" horiz-adv-x="0"/><glyph d="M0 455v1137h228v-1137h-228z" horiz-adv-x="0"/><glyph d="M228 1138v227h227v455h228v-455h227v-227h-227v-455h-228v455h-227z" horiz-adv-x="0"/><glyph d="M0 0v455h455v-683h-227v228h-228z" horiz-adv-x="0"/><glyph d="M0 0v227h228v-227h-228z" horiz-adv-x="0"/><glyph d="M683 910v228h227v227h228v-1137h-228v682h-227z" horiz-adv-x="0"/><glyph d="M0 455v228h682v-228h-682z" horiz-adv-x="0"/><glyph d="M0 228v1137h228v-682h227v-228h-227v-227h-228z" horiz-adv-x="0"/><glyph d="M0 0v683h228v-455h910v-228h-1138z" horiz-adv-x="0"/><glyph d="M0 453v227h682v-227h-682z" horiz-adv-x="0"/><glyph d="M0 0v228h227v-228h-227z" horiz-adv-x="0"/><glyph d="M0 455v228h683v455h-228v227h228v228h227v-910h228v-228h-228v-455h-227v455h-683zM0 683h228v227h-228v-227z" horiz-adv-x="0"/><glyph d="M0 228v1137h228v-455h682v-227h-682v-455h-228z" horiz-adv-x="0"/><glyph d="M0 1138v455h227v-455h-227z" horiz-adv-x="0"/><glyph d="M0 1365v228h1138v-455h-228v227h-910z" horiz-adv-x="0"/><glyph d="M228 683v227h682v455h228v-1137h-228v455h-682z" horiz-adv-x="0"/><glyph d="M0 228v227h1138v-227h-1138z" horiz-adv-x="0"/><glyph d="M455 455v683h683v-455h227v682h228v-910h-1138zM683 683h227v227h-227v-227z" horiz-adv-x="0"/><glyph d="M228 0v228h1137v-228h-1137z" horiz-adv-x="0"/><glyph d="M0 0v1365h228v-455h682v455h228v-1365h-228v683h-682v-683h-228z" horiz-adv-x="0"/><glyph d="M0 0v1593h910v-228h-682v-455h682v-227h-682v-455h682v-228h-910z" horiz-adv-x="0"/><glyph d="M0 0v1593h910v-228h-682v-1137h682v-228h-910z" horiz-adv-x="0"/><glyph d="M455 683v227h683v-682h-228v455h-455z" horiz-adv-x="0"/><glyph d="M910 228v1365h228v-1365h-228z" horiz-adv-x="0"/><glyph d="M910 1138v227h228v228h227v-1593h-227v1138h-228z" horiz-adv-x="0"/><glyph d="M0 0v1593h228v-228h227v-227h-227v-1138h-228z" horiz-adv-x="0"/><glyph d="M683 455v228h227v910h228v-1593h-228v455h-227z" horiz-adv-x="0"/><glyph d="M0 0v1593h228v-455h227v-228h-227v-910h-228z" horiz-adv-x="0"/><glyph d="M0 909v682h228v-682h-228z" horiz-adv-x="0"/><glyph d="M0 0v1593h910v-228h-682v-682h682v-228h-682v-455h-228z" horiz-adv-x="0"/><glyph d="M228 0v228h455v227h227v910h228v-1365h-910z" horiz-adv-x="0"/><glyph d="M0 0v1593h910v-228h-682v-682h682v-455h-227v227h-455v-455h-228z" horiz-adv-x="0"/><glyph d="M0 683v910h228v-910h-228z" horiz-adv-x="0"/><glyph d="M0 0v227h227v-227h-227z" horiz-adv-x="0"/><glyph d="M0 0v455h228v-227h910v-228h-1138z" horiz-adv-x="0"/><glyph d="M228 0v228h682v227h-682v228h682v227h228v-910h-910z" horiz-adv-x="0"/><glyph d="M0 0v1593h228v-455h682v-228h-682v-682h682v-228h-910z" horiz-adv-x="0"/><glyph d="M228 0v228h682v682h-682v228h682v455h228v-1593h-910z" horiz-adv-x="0"/><glyph d="M0 910v228h228v227h227v-227h228v-228h-228v-910h-227v910h-228z" horiz-adv-x="0"/><glyph d="M228 0v228h682v682h-682v228h910v-1366h-228v228h-682z" horiz-adv-x="0"/><glyph d="M0 0v1593h228v-455h682v-228h-682v-910h-228z" horiz-adv-x="0"/><glyph d="M0 0v1138h228v-1138h-228z" horiz-adv-x="0"/><glyph d="M228 -228v1366h227v-1366h-227z" horiz-adv-x="0"/><glyph d="M0 0v1593h228v-910h227v-228h-227v-455h-228z" horiz-adv-x="0"/><glyph d="M0 0v1138h1365v-228h-455v-910h-227v910h-455v-910h-228z" horiz-adv-x="0"/><glyph d="M0 0v1138h910v-228h-682v-910h-228z" horiz-adv-x="0"/><glyph d="M228 0v228h682v682h-682v228h910v-1593h-228v455h-682z" horiz-adv-x="0"/><glyph d="M0 0v1138h228v-228h227v-227h-227v-683h-228z" horiz-adv-x="0"/><glyph d="M0 910v228h228v455h227v-455h455v-228h-455v-682h-227v682h-228z" horiz-adv-x="0"/><glyph d="M0 364v910h227v-910h-227z" horiz-adv-x="0"/><glyph d="M228 0v228h682v910h228v-1366h-228v228h-682z" horiz-adv-x="0"/><glyph d="M0 910v228h1138v-228h-228v-227h-227v227h-683z" horiz-adv-x="0"/><glyph d="M0 0v228h228v227h227v-227h683v-228h-1138z" horiz-adv-x="0"/><glyph d="M228 1365v228h455v-228h227v-227h-455v227h-227z" horiz-adv-x="0"/><glyph d="M228 0v228h227v682h-227v228h227v227h228v-227h227v-228h-227v-682h227v-228h-227v-228h-228v228h-227z" horiz-adv-x="0"/><glyph d="M0 455v228h683v-228h-683z" horiz-adv-x="0"/><glyph d="M228 683v682h227v-455h455v-227h-682z" horiz-adv-x="0"/><glyph d="M0 455v910h228v228h227v227h1138v-227h227v-228h228v-910h-228v-455h-227v-228h-1138v228h-227v455h-228zM228 455h227v-455h228v455h227v-455h228v455h227v-455h228v455h227v910h-227v228h-1138v-228h-227v-910z" horiz-adv-x="0"/><glyph d="M0 453v227h683v-227h-683z" horiz-adv-x="0"/><glyph d="M228 0v227h455v-227h-455z" horiz-adv-x="0"/><glyph d="M228 1138v227h227v228h228v-228h227v-227h-682z" horiz-adv-x="0"/><glyph d="M0 0v1138h228v-455h682v455h228v-1138h-228v455h-682v-455h-228z" horiz-adv-x="0"/><glyph d="M228 1138v455h227v-228h228v228h227v-455h-682z" horiz-adv-x="0"/><glyph d="M228 1138v227h227v228h-227v227h455v-227h227v-455h-682z" horiz-adv-x="0"/><glyph d="M0 0v1138h228v-228h682v228h228v-1138h-228v683h-682v-683h-228z" horiz-adv-x="0"/><glyph d="M0 0v1365h455v228h228v-228h455v-227h-910v-228h682v-227h-682v-455h910v-228h-1138z" horiz-adv-x="0"/><glyph d="M0 0v1138h1138v-228h-910v-227h682v-228h-682v-227h910v-228h-1138z" horiz-adv-x="0"/><glyph d="M0 0v1365h228v228h227v-228h228v228h227v-228h228v-227h-910v-228h682v-227h-682v-455h910v-228h-1138z" horiz-adv-x="0"/><glyph d="M0 0v1365h1138v-227h-910v-228h682v-227h-682v-455h910v-228h-1138z" horiz-adv-x="0"/><glyph d="M0 0v228h228v910h-228v455h228v-228h227v228h228v-455h-228v-910h228v-228h-683z" horiz-adv-x="0"/><glyph d="M0 0v228h228v910h-228v227h683v-227h-228v-910h228v-228h-683z" horiz-adv-x="0"/><glyph d="M228 1365v228h910v-1365h-228v682h-227v455h-455z" horiz-adv-x="0"/><glyph d="M0 0v1365h228v-682h227v-455h455v-228h-910z" horiz-adv-x="0"/><glyph d="M0 -455v1820h228v-455h682v-227h-682v-1138h-228z" horiz-adv-x="0"/><glyph d="M228 0v228h682v227h-682v228h682v227h228v-227h682v227h228v-455h-910v-227h910v-228h-1820z" horiz-adv-x="0"/><glyph d="M228 1593v227h455v-227h227v-228h-455v228h-227z" horiz-adv-x="0"/><glyph d="M455 910v228h910v-910h-227v455h-228v227h-455z" horiz-adv-x="0"/><glyph d="M228 0v910h227v-455h228v-227h455v-228h-910z" horiz-adv-x="0"/><glyph d="M228 0v228h682v1137h-682v228h1592v-228h-682v-455h682v-227h-682v-455h682v-228h-1592z" horiz-adv-x="0"/><glyph d="M228 0v228h682v682h-682v228h1592v-228h-682v-227h682v227h228v-455h-910v-227h910v-228h-1820z" horiz-adv-x="0"/><glyph d="M0 0v228h1138v-228h-1138z" horiz-adv-x="0"/><glyph d="M0 1138v455h455v-683h-227v228h-228z" horiz-adv-x="0"/><glyph d="M0 1138v455h228v-228h227v-227h-455z" horiz-adv-x="0"/><glyph d="M0 1365v228h455v-455h-227v227h-228z" horiz-adv-x="0"/><glyph d="M1820 0v455h456v-455h-456z" horiz-adv-x="0"/><glyph d="M910 1138v682h228v-227h227v227h228v-682h-228v227h-227v-227h-228z" horiz-adv-x="0"/><glyph d="M0 1593v227h683v-227h-228v-455h-227v455h-228z" horiz-adv-x="0"/></font>
</defs>
</svg>
